<?xml version="1.0" standalone="no"?>
<!DOCTYPE svg PUBLIC "-//W3C//DTD SVG 20010904//EN"
 "http://www.w3.org/TR/2001/REC-SVG-20010904/DTD/svg10.dtd">
<svg version="1.0" xmlns="http://www.w3.org/2000/svg"
 width="512.000000pt" height="512.000000pt" viewBox="0 0 512.000000 512.000000"
 preserveAspectRatio="xMidYMid meet">
<metadata>
Created by potrace 1.11, written by Peter Selinger 2001-2013
</metadata>
<g transform="translate(0.000000,512.000000) scale(0.100000,-0.100000)"
fill="#000000" stroke="none">
<path d="M785 3361 c-16 -4 -45 -15 -62 -25 l-33 -17 1 -472 c1 -259 4 -510 7
-557 6 -77 9 -86 33 -99 22 -12 31 -12 70 0 40 13 44 17 42 44 -1 17 -5 75 -8
130 l-7 100 67 43 67 44 24 -23 c30 -28 41 -63 54 -164 24 -192 70 -256 185
-254 95 0 173 37 112 53 -84 21 -156 128 -178 266 -14 92 -27 118 -79 163
l-41 35 23 18 c69 55 146 176 150 235 3 28 -1 35 -23 42 -20 8 -38 4 -81 -15
-51 -24 -56 -29 -61 -66 -9 -55 -79 -154 -154 -220 l-63 -55 0 54 c0 30 7 204
16 386 9 183 14 340 10 348 -6 16 -23 17 -71 6z"/>
<path d="M2820 2915 l-34 -35 147 -148 c81 -81 147 -151 147 -155 0 -4 -146
-7 -325 -7 l-325 0 0 -50 0 -50 325 0 c179 0 325 -3 325 -7 0 -4 -66 -74 -147
-155 l-148 -148 38 -37 37 -38 220 220 220 220 -212 212 c-117 117 -218 213
-223 213 -6 0 -26 -16 -45 -35z"/>
<path d="M1738 2904 c-16 -8 -28 -21 -28 -29 0 -11 -8 -10 -36 7 -42 25 -123
27 -177 5 -82 -35 -161 -140 -186 -248 -17 -71 -13 -227 7 -281 68 -187 248
-237 361 -101 l31 38 -6 -85 c-15 -228 -71 -352 -158 -352 -41 0 -61 13 -82
53 -16 32 -19 128 -5 177 8 26 7 32 -6 32 -28 0 -83 -32 -109 -63 -24 -29 -26
-37 -21 -94 13 -139 83 -207 212 -207 168 0 263 123 289 374 11 103 38 760 32
775 -7 20 -82 19 -118 -1z m-84 -134 c37 -44 56 -120 63 -245 l6 -110 -21 18
c-20 18 -20 18 -37 -32 -31 -95 -101 -142 -153 -104 -49 36 -67 87 -67 193 1
219 122 382 209 280z"/>
<path d="M4313 2908 c-13 -6 -23 -19 -23 -30 0 -23 -1 -23 -44 3 -99 58 -250
-3 -319 -128 -55 -102 -74 -271 -42 -379 57 -192 240 -256 357 -125 l40 46 -7
-100 c-13 -174 -54 -295 -112 -326 -31 -17 -81 -13 -104 7 -29 26 -42 81 -36
148 3 34 8 69 12 79 18 44 -94 -6 -126 -56 -16 -26 -19 -42 -14 -85 15 -141
81 -206 210 -206 157 0 253 111 285 329 10 70 40 649 40 770 l0 65 -47 -1
c-27 0 -58 -5 -70 -11z m-87 -135 c36 -39 55 -114 61 -243 5 -110 4 -114 -13
-98 -17 16 -19 14 -40 -39 -37 -90 -82 -125 -137 -104 -88 34 -110 248 -40
403 46 103 117 137 169 81z"/>
</g>
</svg>
